<mxfile host="app.diagrams.net" modified="2021-02-18T13:38:56.357Z" agent="5.0 (Windows NT 10.0; Win64; x64) AppleWebKit/537.36 (KHTML, like Gecko) Chrome/88.0.4324.150 Safari/537.36" etag="BhtiJ2zO4rI9DxlCYyvz" version="14.4.2" type="github">
  <diagram id="C5RBs43oDa-KdzZeNtuy" name="Page-1">
    <mxGraphModel dx="2031" dy="1007" grid="1" gridSize="10" guides="1" tooltips="1" connect="1" arrows="1" fold="1" page="1" pageScale="1" pageWidth="827" pageHeight="1169" math="0" shadow="0">
      <root>
        <mxCell id="WIyWlLk6GJQsqaUBKTNV-0" />
        <mxCell id="WIyWlLk6GJQsqaUBKTNV-1" parent="WIyWlLk6GJQsqaUBKTNV-0" />
        <mxCell id="tddGedH7JE_455poYQmz-1" value="" style="group;container=1;" vertex="1" connectable="0" parent="WIyWlLk6GJQsqaUBKTNV-1">
          <mxGeometry x="50" y="90" width="1170" height="630" as="geometry" />
        </mxCell>
        <mxCell id="tddGedH7JE_455poYQmz-2" value="" style="rounded=0;whiteSpace=wrap;html=1;strokeColor=none;" vertex="1" parent="tddGedH7JE_455poYQmz-1">
          <mxGeometry x="-50" y="-50" width="1210" height="680" as="geometry" />
        </mxCell>
        <mxCell id="x46lmwyZp_in1Qv7EWuY-29" value="" style="rounded=1;whiteSpace=wrap;html=1;fillColor=#dae8fc;dashed=1;dashPattern=1 1;strokeColor=#6c8ebf;arcSize=2;" parent="tddGedH7JE_455poYQmz-1" vertex="1">
          <mxGeometry width="730" height="490" as="geometry" />
        </mxCell>
        <mxCell id="x46lmwyZp_in1Qv7EWuY-21" value="" style="rounded=0;whiteSpace=wrap;html=1;strokeColor=none;fillColor=#F0F1FF;" parent="tddGedH7JE_455poYQmz-1" vertex="1">
          <mxGeometry x="590" width="120" height="490" as="geometry" />
        </mxCell>
        <mxCell id="34E9-cvRjWJ2LijMjMoU-5" value="시리얼&lt;br&gt;초기화" style="rounded=1;whiteSpace=wrap;html=1;fontSize=12;glass=0;strokeWidth=1;shadow=0;fillColor=#f5f5f5;strokeColor=#666666;fontColor=#333333;" parent="tddGedH7JE_455poYQmz-1" vertex="1">
          <mxGeometry x="10" y="240" width="120" height="40" as="geometry" />
        </mxCell>
        <mxCell id="x46lmwyZp_in1Qv7EWuY-2" value="&lt;span&gt;&lt;b&gt;&lt;u&gt;로그인&lt;/u&gt;&lt;/b&gt;&lt;br&gt;&lt;br&gt;ADMIN&lt;br&gt;GUEST&lt;br&gt;OTHER&lt;br&gt;&lt;/span&gt;" style="rhombus;whiteSpace=wrap;html=1;" parent="tddGedH7JE_455poYQmz-1" vertex="1">
          <mxGeometry x="170" y="197.5" width="160" height="125" as="geometry" />
        </mxCell>
        <mxCell id="x46lmwyZp_in1Qv7EWuY-4" value="" style="edgeStyle=orthogonalEdgeStyle;rounded=0;orthogonalLoop=1;jettySize=auto;html=1;" parent="tddGedH7JE_455poYQmz-1" source="34E9-cvRjWJ2LijMjMoU-5" target="x46lmwyZp_in1Qv7EWuY-2" edge="1">
          <mxGeometry relative="1" as="geometry" />
        </mxCell>
        <mxCell id="x46lmwyZp_in1Qv7EWuY-3" value="&lt;b&gt;&lt;u&gt;[제어화면]&lt;/u&gt;&lt;/b&gt;&lt;br&gt;&lt;br&gt;관리자" style="rounded=1;whiteSpace=wrap;html=1;fontSize=12;glass=0;strokeWidth=1;shadow=0;fillColor=#f5f5f5;strokeColor=#666666;fontColor=#333333;" parent="tddGedH7JE_455poYQmz-1" vertex="1">
          <mxGeometry x="400" y="115" width="120" height="60" as="geometry" />
        </mxCell>
        <mxCell id="x46lmwyZp_in1Qv7EWuY-5" style="edgeStyle=orthogonalEdgeStyle;rounded=0;orthogonalLoop=1;jettySize=auto;html=1;entryX=0;entryY=0.5;entryDx=0;entryDy=0;" parent="tddGedH7JE_455poYQmz-1" source="x46lmwyZp_in1Qv7EWuY-2" target="x46lmwyZp_in1Qv7EWuY-3" edge="1">
          <mxGeometry relative="1" as="geometry" />
        </mxCell>
        <mxCell id="x46lmwyZp_in1Qv7EWuY-6" value="&lt;b&gt;&lt;u&gt;[제어화면]&lt;/u&gt;&lt;/b&gt;&lt;br&gt;&lt;br&gt;게스트" style="rounded=1;whiteSpace=wrap;html=1;fontSize=12;glass=0;strokeWidth=1;shadow=0;fillColor=#f5f5f5;strokeColor=#666666;fontColor=#333333;" parent="tddGedH7JE_455poYQmz-1" vertex="1">
          <mxGeometry x="400" y="360" width="120" height="60" as="geometry" />
        </mxCell>
        <mxCell id="x46lmwyZp_in1Qv7EWuY-7" style="edgeStyle=orthogonalEdgeStyle;rounded=0;orthogonalLoop=1;jettySize=auto;html=1;entryX=0;entryY=0.5;entryDx=0;entryDy=0;" parent="tddGedH7JE_455poYQmz-1" source="x46lmwyZp_in1Qv7EWuY-2" target="x46lmwyZp_in1Qv7EWuY-6" edge="1">
          <mxGeometry relative="1" as="geometry" />
        </mxCell>
        <mxCell id="x46lmwyZp_in1Qv7EWuY-9" value="&lt;b&gt;시리얼 포트제어&lt;/b&gt;" style="rounded=1;whiteSpace=wrap;html=1;" parent="tddGedH7JE_455poYQmz-1" vertex="1">
          <mxGeometry x="590" y="35" width="120" height="40" as="geometry" />
        </mxCell>
        <mxCell id="x46lmwyZp_in1Qv7EWuY-10" value="" style="endArrow=none;html=1;entryX=0.5;entryY=1;entryDx=0;entryDy=0;dashed=1;" parent="tddGedH7JE_455poYQmz-1" source="x46lmwyZp_in1Qv7EWuY-13" target="x46lmwyZp_in1Qv7EWuY-9" edge="1">
          <mxGeometry width="50" height="50" relative="1" as="geometry">
            <mxPoint x="650" y="495" as="sourcePoint" />
            <mxPoint x="430" y="235" as="targetPoint" />
          </mxGeometry>
        </mxCell>
        <mxCell id="x46lmwyZp_in1Qv7EWuY-13" value="제어" style="rounded=1;whiteSpace=wrap;html=1;" parent="tddGedH7JE_455poYQmz-1" vertex="1">
          <mxGeometry x="620" y="115" width="60" height="60" as="geometry" />
        </mxCell>
        <mxCell id="x46lmwyZp_in1Qv7EWuY-15" style="edgeStyle=orthogonalEdgeStyle;rounded=0;orthogonalLoop=1;jettySize=auto;html=1;" parent="tddGedH7JE_455poYQmz-1" source="x46lmwyZp_in1Qv7EWuY-3" target="x46lmwyZp_in1Qv7EWuY-13" edge="1">
          <mxGeometry relative="1" as="geometry" />
        </mxCell>
        <mxCell id="x46lmwyZp_in1Qv7EWuY-14" value="" style="endArrow=none;html=1;entryX=0.5;entryY=1;entryDx=0;entryDy=0;dashed=1;" parent="tddGedH7JE_455poYQmz-1" source="x46lmwyZp_in1Qv7EWuY-16" target="x46lmwyZp_in1Qv7EWuY-13" edge="1">
          <mxGeometry width="50" height="50" relative="1" as="geometry">
            <mxPoint x="650" y="495" as="sourcePoint" />
            <mxPoint x="650" y="75" as="targetPoint" />
          </mxGeometry>
        </mxCell>
        <mxCell id="x46lmwyZp_in1Qv7EWuY-16" value="제어" style="rounded=1;whiteSpace=wrap;html=1;" parent="tddGedH7JE_455poYQmz-1" vertex="1">
          <mxGeometry x="620" y="360" width="60" height="60" as="geometry" />
        </mxCell>
        <mxCell id="x46lmwyZp_in1Qv7EWuY-18" style="edgeStyle=orthogonalEdgeStyle;rounded=0;orthogonalLoop=1;jettySize=auto;html=1;entryX=0;entryY=0.5;entryDx=0;entryDy=0;" parent="tddGedH7JE_455poYQmz-1" source="x46lmwyZp_in1Qv7EWuY-6" target="x46lmwyZp_in1Qv7EWuY-16" edge="1">
          <mxGeometry relative="1" as="geometry" />
        </mxCell>
        <mxCell id="x46lmwyZp_in1Qv7EWuY-17" value="" style="endArrow=none;html=1;entryX=0.5;entryY=1;entryDx=0;entryDy=0;dashed=1;" parent="tddGedH7JE_455poYQmz-1" target="x46lmwyZp_in1Qv7EWuY-16" edge="1">
          <mxGeometry width="50" height="50" relative="1" as="geometry">
            <mxPoint x="650" y="490" as="sourcePoint" />
            <mxPoint x="650" y="175" as="targetPoint" />
          </mxGeometry>
        </mxCell>
        <mxCell id="x46lmwyZp_in1Qv7EWuY-22" value="&lt;font style=&quot;font-size: 30px&quot;&gt;아두이노&lt;/font&gt;" style="rounded=1;whiteSpace=wrap;html=1;fillColor=#e1d5e7;shadow=0;strokeColor=#9673a6;strokeWidth=1;glass=0;arcSize=5;" parent="tddGedH7JE_455poYQmz-1" vertex="1">
          <mxGeometry x="770" y="115" width="330" height="300" as="geometry" />
        </mxCell>
        <mxCell id="x46lmwyZp_in1Qv7EWuY-23" style="edgeStyle=orthogonalEdgeStyle;rounded=0;orthogonalLoop=1;jettySize=auto;html=1;entryX=-0.009;entryY=0.1;entryDx=0;entryDy=0;entryPerimeter=0;" parent="tddGedH7JE_455poYQmz-1" source="x46lmwyZp_in1Qv7EWuY-13" target="x46lmwyZp_in1Qv7EWuY-22" edge="1">
          <mxGeometry relative="1" as="geometry" />
        </mxCell>
        <mxCell id="x46lmwyZp_in1Qv7EWuY-24" style="edgeStyle=orthogonalEdgeStyle;rounded=0;orthogonalLoop=1;jettySize=auto;html=1;exitX=1;exitY=0.5;exitDx=0;exitDy=0;entryX=0.006;entryY=0.917;entryDx=0;entryDy=0;entryPerimeter=0;" parent="tddGedH7JE_455poYQmz-1" source="x46lmwyZp_in1Qv7EWuY-16" target="x46lmwyZp_in1Qv7EWuY-22" edge="1">
          <mxGeometry relative="1" as="geometry" />
        </mxCell>
        <mxCell id="x46lmwyZp_in1Qv7EWuY-25" value="" style="endArrow=classic;startArrow=classic;html=1;strokeColor=#0000CC;" parent="tddGedH7JE_455poYQmz-1" edge="1">
          <mxGeometry width="50" height="50" relative="1" as="geometry">
            <mxPoint x="10" y="550" as="sourcePoint" />
            <mxPoint x="740" y="550" as="targetPoint" />
          </mxGeometry>
        </mxCell>
        <mxCell id="x46lmwyZp_in1Qv7EWuY-31" value="&lt;span style=&quot;font-size: 25px&quot;&gt;&lt;font color=&quot;#0000cc&quot;&gt;~ OS 처리영역&lt;/font&gt;&lt;/span&gt;" style="text;html=1;align=center;verticalAlign=middle;resizable=0;points=[];autosize=1;fontStyle=1" parent="tddGedH7JE_455poYQmz-1" vertex="1">
          <mxGeometry x="290" y="570" width="180" height="20" as="geometry" />
        </mxCell>
        <mxCell id="x46lmwyZp_in1Qv7EWuY-32" value="&lt;font color=&quot;#0000cc&quot;&gt;&lt;span style=&quot;font-size: 25px&quot;&gt;OS아닌 영역&lt;/span&gt;&lt;/font&gt;" style="text;html=1;align=center;verticalAlign=middle;resizable=0;points=[];autosize=1;fontStyle=1" parent="tddGedH7JE_455poYQmz-1" vertex="1">
          <mxGeometry x="860" y="570" width="160" height="20" as="geometry" />
        </mxCell>
        <mxCell id="x46lmwyZp_in1Qv7EWuY-33" value="" style="endArrow=classic;startArrow=classic;html=1;strokeColor=#0000CC;" parent="tddGedH7JE_455poYQmz-1" edge="1">
          <mxGeometry width="50" height="50" relative="1" as="geometry">
            <mxPoint x="770" y="550" as="sourcePoint" />
            <mxPoint x="1100" y="550" as="targetPoint" />
          </mxGeometry>
        </mxCell>
      </root>
    </mxGraphModel>
  </diagram>
</mxfile>
